<?xml version="1.0" encoding="utf-8"?>
<!-- Generator: Adobe Illustrator 15.0.0, SVG Export Plug-In  -->
<!DOCTYPE svg PUBLIC "-//W3C//DTD SVG 1.1//EN" "http://www.w3.org/Graphics/SVG/1.1/DTD/svg11.dtd" [
	<!ENTITY ns_flows "http://ns.adobe.com/Flows/1.0/">
]>
<svg version="1.1"
	 xmlns="http://www.w3.org/2000/svg" xmlns:xlink="http://www.w3.org/1999/xlink" xmlns:a="http://ns.adobe.com/AdobeSVGViewerExtensions/3.0/"
	 x="0px" y="0px" width="104px" height="80px" viewBox="0 0 104 80" enable-background="new 0 0 104 80" xml:space="preserve">
<defs>
</defs>
<g>
	<defs>
		<rect id="SVGID_1_" y="0" width="103.912" height="80"/>
	</defs>
	<clipPath id="SVGID_2_">
		<use xlink:href="#SVGID_1_"  overflow="visible"/>
	</clipPath>
	<path clip-path="url(#SVGID_2_)" fill="#B3282D" d="M52.549,2.417c-0.308-0.004-0.614-0.006-0.921-0.006
		c-13.079,0-25.392,3.836-34.67,10.803C7.708,20.156,2.529,29.426,2.374,39.316c-0.129,8.263,3.221,16.153,9.69,22.814
		c4.455,4.589,10.309,8.42,16.927,11.079c6.948,2.794,14.476,4.266,22.374,4.374c0.309,0.005,0.616,0.006,0.922,0.006
		c13.079,0,25.393-3.836,34.67-10.802c9.249-6.942,14.427-16.214,14.583-26.103c0.131-8.264-3.22-16.151-9.689-22.816
		C87.395,13.28,81.543,9.45,74.923,6.791C67.975,3.998,60.446,2.525,52.549,2.417"/>
	<path clip-path="url(#SVGID_2_)" fill="#FFFFFF" d="M52.286,78.662c-0.313,0-0.623-0.002-0.937-0.006
		c-8.032-0.112-15.688-1.608-22.76-4.451c-6.757-2.714-12.737-6.632-17.295-11.327C4.623,56.006,1.168,47.853,1.303,39.3
		c0.16-10.229,5.49-19.797,15.01-26.944C25.776,5.25,38.318,1.338,51.628,1.338c0.311,0,0.622,0.003,0.936,0.008
		c8.03,0.11,15.689,1.607,22.76,4.45c6.756,2.714,12.737,6.632,17.296,11.327c6.671,6.871,10.126,15.025,9.993,23.579
		c-0.161,10.229-5.492,19.796-15.012,26.943C78.137,74.75,65.596,78.662,52.286,78.662 M51.628,2.411
		c-13.079,0-25.392,3.836-34.672,10.803C7.708,20.157,2.53,29.427,2.373,39.317c-0.129,8.262,3.222,16.152,9.69,22.813
		c4.456,4.589,10.309,8.42,16.925,11.079c6.95,2.794,14.477,4.266,22.377,4.373c0.308,0.006,0.614,0.007,0.921,0.007
		c13.079,0,25.391-3.836,34.671-10.803c9.247-6.941,14.427-16.213,14.583-26.102c0.129-8.263-3.222-16.151-9.69-22.816
		C87.393,13.281,81.543,9.45,74.923,6.791c-6.948-2.794-14.476-4.265-22.374-4.374C52.241,2.412,51.935,2.411,51.628,2.411"/>
	<path clip-path="url(#SVGID_2_)" fill="#513529" d="M88.931,12.05C79.268,4.474,66.358,0.197,52.585,0.008
		C52.268,0.003,51.95,0,51.633,0C38.056,0,25.244,4.005,15.557,11.278C5.695,18.683,0.171,28.627,0.004,39.282
		c-0.169,10.785,5.149,20.966,14.977,28.669c9.665,7.575,22.573,11.851,36.347,12.041C51.647,79.999,51.963,80,52.28,80
		c13.576,0,26.39-4.005,36.076-11.276c9.86-7.404,15.386-17.35,15.552-28.005C104.079,29.935,98.759,19.753,88.931,12.05
		 M87.602,67.645c-9.465,7.104-22.008,11.017-35.315,11.017c-0.313,0-0.623-0.002-0.937-0.006
		c-8.032-0.111-15.688-1.607-22.762-4.451c-6.755-2.714-12.735-6.632-17.294-11.326c-6.671-6.871-10.127-15.025-9.991-23.58
		c0.16-10.228,5.49-19.797,15.009-26.944C25.776,5.251,38.318,1.338,51.628,1.338c0.311,0,0.622,0.002,0.936,0.007
		c8.03,0.111,15.687,1.608,22.76,4.45c6.756,2.715,12.736,6.632,17.296,11.328c6.671,6.871,10.126,15.024,9.993,23.579
		C102.451,50.929,97.12,60.498,87.602,67.645"/>
	<path clip-path="url(#SVGID_2_)" fill="#BE955B" d="M51.957,62.111c-17.851,0-32.376-9.919-32.376-22.11
		s14.525-22.109,32.376-22.109c17.852,0,32.375,9.918,32.375,22.109S69.809,62.111,51.957,62.111"/>
	<path clip-path="url(#SVGID_2_)" fill="#FFFFFF" d="M51.957,18.971c-17.258,0-31.295,9.435-31.295,21.029
		c0,11.595,14.037,21.029,31.295,21.029c17.256,0,31.295-9.434,31.295-21.029C83.252,28.406,69.213,18.971,51.957,18.971"/>
	<path clip-path="url(#SVGID_2_)" fill="#BE955B" d="M27.763,61.595c-0.221-0.279-0.735-0.935-1.439-1.456
		c-1.339-0.988-2.971-1.166-4.123,0.392c-1.27,1.72-0.434,3.194,0.719,4.047c0.715,0.529,1.497,0.773,1.964,0.914l-0.215,1.207
		c-0.543-0.184-1.544-0.517-2.858-1.489c-2.769-2.047-3.139-4.585-1.884-6.284c1.355-1.831,4.012-2.002,6.791,0.054
		c0.751,0.555,1.499,1.253,2.109,2.022L27.763,61.595z"/>
	<path clip-path="url(#SVGID_2_)" fill="#BE955B" d="M25.256,67.689l-0.828-0.279l0.241-0.712l-0.254,0.708
		c-0.577-0.195-1.653-0.559-3.051-1.592c-3.333-2.465-3.425-5.459-2.04-7.335c0.827-1.119,2.076-1.735,3.517-1.735
		c1.386,0,2.879,0.566,4.322,1.633c0.854,0.629,1.631,1.377,2.251,2.16l0.547,0.691l-2.391,1.334l-0.396-0.501
		c-0.23-0.29-0.684-0.866-1.296-1.318c-0.544-0.4-1.095-0.613-1.594-0.613c-0.567,0-1.064,0.285-1.481,0.849
		c-0.562,0.76-0.922,1.899,0.562,2.995c0.629,0.466,1.348,0.684,1.736,0.801l0.637,0.193L25.256,67.689z"/>
	<path clip-path="url(#SVGID_2_)" fill="#BE955B" d="M30.158,65.573c0.739-2.388,3.26-3.16,6.123-2.273
		c2.344,0.727,4.569,2.415,3.715,5.17c-0.724,2.342-3.071,3.328-6.181,2.364c-3.398-1.051-4.246-3.355-3.66-5.25L30.158,65.573z
		 M32.809,66.417c-0.555,1.795-0.125,2.931,1.395,3.402c1.111,0.343,2.455,0.025,3.127-2.149c0.522-1.684,0.192-2.85-1.383-3.336
		c-1.645-0.509-2.597,0.332-3.134,2.073L32.809,66.417z"/>
	<path clip-path="url(#SVGID_2_)" fill="#BE955B" d="M36.048,71.952c-0.773,0-1.598-0.135-2.455-0.4
		c-1.743-0.539-3.037-1.452-3.747-2.641c-0.64-1.072-0.784-2.332-0.408-3.549c0.615-1.988,2.349-3.169,4.641-3.169
		c0.774,0,1.589,0.132,2.424,0.39c3.435,1.063,5.047,3.404,4.21,6.109C40.082,70.733,38.338,71.952,36.048,71.952 M35.063,64.936
		c-0.276,0-1.01,0-1.533,1.691c-0.23,0.743-0.264,1.313-0.106,1.708c0.053,0.129,0.21,0.521,1.001,0.767
		c0.181,0.057,0.359,0.084,0.526,0.084c0.747,0,1.307-0.584,1.663-1.738c0.218-0.701,0.255-1.249,0.109-1.628
		c-0.085-0.225-0.281-0.548-0.998-0.771C35.482,64.974,35.259,64.936,35.063,64.936"/>
	<polygon clip-path="url(#SVGID_2_)" fill="#BE955B" points="51.181,65.835 51.076,67.023 46.756,66.649 46.571,68.799 
		50.587,69.148 50.483,70.344 46.467,69.998 46.195,73.137 43.56,72.912 44.224,65.236 	"/>
	<polygon clip-path="url(#SVGID_2_)" fill="#BE955B" points="46.879,73.951 42.749,73.594 43.541,64.421 51.992,65.154 
		51.761,67.833 47.439,67.459 47.382,68.118 51.398,68.464 51.166,71.158 47.149,70.81 	"/>
	<polygon clip-path="url(#SVGID_2_)" fill="#BE955B" points="61.95,65.047 62.066,66.232 57.749,66.652 57.958,68.801 61.97,68.411 
		62.088,69.608 58.075,70 58.38,73.136 55.75,73.392 55.003,65.722 	"/>
	<polygon clip-path="url(#SVGID_2_)" fill="#BE955B" points="55.076,74.21 54.183,65.047 62.625,64.227 62.886,66.907 
		58.569,67.326 58.633,67.982 62.644,67.591 62.905,70.283 58.895,70.673 59.199,73.811 	"/>
	<polygon clip-path="url(#SVGID_2_)" fill="#BE955B" points="72.276,62.139 72.636,63.276 68.5,64.584 69.085,66.432 72.929,65.215 
		73.276,66.306 69.433,67.523 70.098,69.626 74.304,68.295 74.673,69.464 67.948,71.594 65.62,64.249 	"/>
	<polygon clip-path="url(#SVGID_2_)" fill="#BE955B" points="67.459,72.536 64.679,63.759 72.764,61.198 73.579,63.764 
		69.442,65.073 69.575,65.49 73.419,64.273 74.217,66.794 70.373,68.011 70.588,68.684 74.792,67.352 75.617,69.953 	"/>
	<polygon clip-path="url(#SVGID_2_)" fill="#BE955B" points="81.552,56.491 82.229,57.471 78.659,59.935 79.759,61.531 
		83.077,59.241 83.727,60.181 80.409,62.472 81.662,64.288 85.293,61.782 85.99,62.792 80.186,66.799 75.807,60.458 	"/>
	<polygon clip-path="url(#SVGID_2_)" fill="#BE955B" points="79.993,67.843 74.764,60.265 81.743,55.446 83.273,57.662 
		79.702,60.125 79.951,60.487 83.268,58.197 84.771,60.374 81.453,62.663 81.854,63.244 85.484,60.739 87.033,62.983 	"/>
	<path clip-path="url(#SVGID_2_)" fill="#FFFFFF" d="M26.717,58.979c-2.779-2.055-5.436-1.884-6.791-0.054
		c-1.254,1.699-0.885,4.237,1.884,6.285c1.314,0.972,2.315,1.305,2.859,1.487l0.215-1.207c-0.467-0.14-1.25-0.385-1.964-0.913
		c-1.154-0.853-1.99-2.326-0.72-4.047c1.153-1.558,2.785-1.381,4.123-0.392c0.705,0.521,1.218,1.177,1.439,1.457l1.064-0.594
		C28.217,60.232,27.468,59.534,26.717,58.979"/>
	<path clip-path="url(#SVGID_2_)" fill="#FFFFFF" d="M36.281,63.299c-2.863-0.887-5.384-0.114-6.123,2.273l-0.003,0.011
		c-0.586,1.895,0.262,4.199,3.66,5.251c3.11,0.963,5.457-0.023,6.181-2.365C40.85,65.714,38.625,64.025,36.281,63.299
		 M37.331,67.669c-0.672,2.175-2.016,2.492-3.127,2.149c-1.52-0.472-1.95-1.607-1.395-3.402l0.005-0.01
		c0.537-1.741,1.489-2.582,3.134-2.073C37.523,64.82,37.853,65.986,37.331,67.669"/>
	<polygon clip-path="url(#SVGID_2_)" fill="#FFFFFF" points="43.561,72.911 46.195,73.138 46.467,69.998 50.483,70.344 
		50.586,69.147 46.57,68.8 46.755,66.649 51.076,67.022 51.181,65.835 44.225,65.235 	"/>
	<polygon clip-path="url(#SVGID_2_)" fill="#FFFFFF" points="61.97,68.411 57.958,68.801 57.749,66.652 62.066,66.231 61.95,65.047 
		55.003,65.722 55.75,73.391 58.38,73.136 58.075,70 62.088,69.608 	"/>
	<polygon clip-path="url(#SVGID_2_)" fill="#FFFFFF" points="70.098,69.626 69.432,67.523 73.275,66.306 72.929,65.215 
		69.086,66.433 68.5,64.584 72.636,63.276 72.276,62.139 65.62,64.249 67.948,71.594 74.673,69.464 74.304,68.295 	"/>
	<polygon clip-path="url(#SVGID_2_)" fill="#FFFFFF" points="85.293,61.782 81.663,64.288 80.41,62.472 83.726,60.181 83.077,59.24 
		79.759,61.531 78.66,59.935 82.23,57.471 81.552,56.491 75.806,60.458 80.185,66.799 85.99,62.792 	"/>
	<polygon clip-path="url(#SVGID_2_)" fill="#BE955B" points="9.033,30.083 11.861,31.395 13.376,28.127 10.546,26.816 11.54,24.674 
		18.53,27.917 17.536,30.059 14.434,28.619 12.919,31.884 16.023,33.324 15.03,35.465 8.04,32.225 	"/>
	<polygon clip-path="url(#SVGID_2_)" fill="#BE955B" points="15.394,36.462 7.044,32.59 8.667,29.086 11.495,30.398 12.379,28.493 
		9.552,27.181 11.176,23.679 19.527,27.551 17.901,31.054 14.799,29.616 13.915,31.52 17.019,32.959 	"/>
	
		<rect x="15.737" y="20.434" transform="matrix(-0.6781 -0.735 0.735 -0.6781 16.9889 50.6695)" clip-path="url(#SVGID_2_)" fill="#BE955B" width="7.707" height="2.361"/>
	
		<rect x="14.986" y="19.684" transform="matrix(0.6781 0.7349 -0.7349 0.6781 22.1914 -7.441)" clip-path="url(#SVGID_2_)" fill="#BE955B" width="9.209" height="3.863"/>
	<path clip-path="url(#SVGID_2_)" fill="#BE955B" d="M28.97,12.506c-0.514,0.103-1.202,0.275-1.899,0.651
		c-1.618,0.871-2.255,2.329-1.37,3.974c0.875,1.625,2.244,1.828,3.671,1.192c0.332-0.166,0.692-0.387,0.856-0.501l-0.902-1.676
		l-1.408,0.758l-0.531-0.986l3.384-1.824l1.71,3.177c-0.629,0.644-1.402,1.405-2.67,2.089c-2.789,1.503-5.309,0.951-6.366-1.014
		c-1.068-1.984-0.229-4.437,2.747-6.042c0.837-0.449,1.717-0.792,2.618-0.986L28.97,12.506z"/>
	<path clip-path="url(#SVGID_2_)" fill="#BE955B" d="M26.745,20.969c-1.741,0-3.185-0.825-3.96-2.266
		c-1.125-2.089-0.618-5.082,3.05-7.059c0.932-0.502,1.879-0.858,2.818-1.06l0.794-0.17l0.359,2.686l-0.687,0.14
		c-0.464,0.095-1.076,0.246-1.692,0.577c-0.769,0.416-1.932,1.351-1.066,2.959c0.33,0.612,0.732,0.971,1.222,1.088l-1.212-2.251
		l4.705-2.535l2.327,4.322l-0.384,0.396c-0.718,0.734-1.53,1.513-2.853,2.225C29.015,20.641,27.832,20.969,26.745,20.969
		 M27.682,17.884c0.4,0.069,0.86-0.016,1.37-0.24c0.058-0.03,0.119-0.061,0.177-0.093l-0.208-0.388L27.682,17.884z"/>
	<polygon clip-path="url(#SVGID_2_)" fill="#BE955B" points="36.588,8.464 37.288,11.502 40.796,10.694 40.096,7.655 42.398,7.127 
		44.125,14.636 41.823,15.167 41.059,11.833 37.548,12.639 38.315,15.975 36.016,16.504 34.288,8.992 	"/>
	<polygon clip-path="url(#SVGID_2_)" fill="#BE955B" points="35.451,17.402 33.388,8.43 37.151,7.565 37.85,10.603 39.896,10.132 
		39.199,7.094 42.961,6.228 45.025,15.201 41.262,16.067 40.495,12.733 38.449,13.203 39.215,16.537 	"/>
	<polygon clip-path="url(#SVGID_2_)" fill="#BE955B" points="47.541,15.076 47.343,5.871 51.205,5.789 51.343,12.268 55.111,12.188 
		55.17,14.915 	"/>
	<path clip-path="url(#SVGID_2_)" fill="#BE955B" d="M64.104,7.73l2.433,8.305l-2.486-0.472l-0.517-2.035l-3.244-0.616l-1.25,1.699
		l-1.615-0.306l5.321-6.833L64.104,7.73z M60.976,11.973l2.281,0.434l-0.684-2.625L60.976,11.973z"/>
	<polygon clip-path="url(#SVGID_2_)" fill="#BE955B" points="67.603,17.002 63.44,16.211 62.924,14.176 60.615,13.737 
		59.364,15.438 56.079,14.813 62.436,6.649 64.695,7.079 	"/>
	<polygon clip-path="url(#SVGID_2_)" fill="#BE955B" points="74.002,10.638 76.505,17.109 78.545,12.779 79.985,13.456 
		76.701,20.428 75.402,19.815 72.899,13.344 70.858,17.674 69.419,16.995 72.704,10.026 	"/>
	<polygon clip-path="url(#SVGID_2_)" fill="#BE955B" points="77.061,21.426 74.813,20.366 72.831,15.249 71.218,18.673 
		68.421,17.355 72.345,9.027 74.593,10.087 76.573,15.203 78.187,11.779 80.982,13.098 	"/>
	<path clip-path="url(#SVGID_2_)" fill="#BE955B" d="M87.593,19.351c1.021,1.043,1.963,2.021,2.304,3.403
		c0.384,1.56-0.619,2.706-1.011,3.09c-0.585,0.571-2.059,1.669-4.068,0.918c-1.001-0.37-1.717-0.985-2.876-2.168l-1.98-2.022
		l5.504-5.392L87.593,19.351z M86.316,19.65l-3.902,3.824l0.51,0.521c0.85,0.867,1.982,2.239,4.201,0.067
		c1.793-1.756,0.734-2.837-0.15-3.741L86.316,19.65z"/>
	<path clip-path="url(#SVGID_2_)" fill="#BE955B" d="M86.169,27.766c-0.536,0-1.08-0.102-1.614-0.302
		c-1.137-0.42-1.922-1.091-3.148-2.346L78.9,22.561l6.576-6.442l2.651,2.707c1.032,1.055,2.101,2.144,2.495,3.749
		c0.469,1.902-0.691,3.294-1.212,3.805C88.883,26.897,87.759,27.766,86.169,27.766 M83.474,23.485l0.104,0.105
		c0.423,0.436,0.859,0.887,1.373,0.887c0.446,0,1.014-0.329,1.649-0.95c1.259-1.231,0.754-1.746-0.163-2.681l-0.13-0.134
		L83.474,23.485z"/>
	<path clip-path="url(#SVGID_2_)" fill="#BE955B" d="M94.861,33.298c-0.025-0.615-0.109-1.36-0.333-1.987
		c-0.25-0.701-0.684-1.113-1.089-0.969c-0.368,0.132-0.459,0.649-0.589,1.485l-0.135,0.976c-0.185,1.119-0.426,2.452-1.604,2.872
		c-1.178,0.421-2.673-0.305-3.46-2.503c-0.351-0.983-0.481-1.892-0.419-2.926l1.246,0.095c-0.02,0.755-0.005,1.484,0.302,2.344
		c0.287,0.799,0.771,1.178,1.188,1.03c0.392-0.141,0.524-0.534,0.697-1.621l0.124-0.93c0.141-0.882,0.386-2.382,1.564-2.803
		c1.258-0.449,2.613,0.535,3.314,2.5c0.28,0.787,0.423,1.623,0.438,2.463L94.861,33.298z"/>
	<path clip-path="url(#SVGID_2_)" fill="#BE955B" d="M90.456,36.54c-1.502,0-2.813-1.165-3.509-3.117
		c-0.383-1.069-0.53-2.092-0.463-3.222l0.044-0.762l2.716,0.208l-0.016,0.711c-0.016,0.694-0.007,1.328,0.26,2.074
		c0.083,0.235,0.175,0.384,0.247,0.471c0.057-0.173,0.121-0.483,0.19-0.926l0.121-0.912c0.149-0.935,0.452-2.838,2.057-3.411
		c0.28-0.1,0.57-0.151,0.861-0.151c1.421,0,2.729,1.19,3.412,3.105c0.303,0.85,0.464,1.759,0.48,2.703l0.013,0.779l-2.732-0.056
		l-0.027-0.707c-0.028-0.703-0.127-1.313-0.287-1.764c-0.04-0.107-0.08-0.195-0.119-0.267c-0.043,0.202-0.083,0.453-0.113,0.647
		l-0.135,0.983c-0.188,1.147-0.478,2.88-2.092,3.456C91.072,36.487,90.766,36.54,90.456,36.54"/>
	<polygon clip-path="url(#SVGID_2_)" fill="#FFFFFF" points="10.546,26.817 13.376,28.128 11.86,31.395 9.033,30.084 8.041,32.225 
		15.03,35.466 16.023,33.324 12.919,31.885 14.435,28.618 17.537,30.058 18.529,27.916 11.541,24.675 	"/>
	
		<rect x="15.738" y="20.434" transform="matrix(-0.6781 -0.735 0.735 -0.6781 16.9887 50.6705)" clip-path="url(#SVGID_2_)" fill="#FFFFFF" width="7.705" height="2.361"/>
	<path clip-path="url(#SVGID_2_)" fill="#FFFFFF" d="M27.388,15.918l0.531,0.986l1.408-0.758l0.901,1.676
		c-0.163,0.114-0.524,0.335-0.855,0.501c-1.428,0.636-2.797,0.433-3.672-1.192c-0.885-1.645-0.248-3.103,1.371-3.974
		c0.696-0.376,1.385-0.549,1.899-0.651l-0.16-1.189c-0.901,0.195-1.781,0.538-2.619,0.987c-2.976,1.605-3.814,4.058-2.747,6.042
		c1.057,1.965,3.577,2.517,6.366,1.013c1.268-0.683,2.041-1.444,2.671-2.088l-1.71-3.177L27.388,15.918z"/>
	<polygon clip-path="url(#SVGID_2_)" fill="#FFFFFF" points="40.097,7.656 40.796,10.695 37.287,11.502 36.589,8.465 34.287,8.993 
		36.015,16.504 38.316,15.974 37.549,12.639 41.059,11.832 41.824,15.167 44.125,14.637 42.399,7.128 	"/>
	<polygon clip-path="url(#SVGID_2_)" fill="#FFFFFF" points="50.609,13.034 50.469,6.556 48.11,6.605 48.273,14.309 54.402,14.18 
		54.377,12.954 	"/>
	<path clip-path="url(#SVGID_2_)" fill="#FFFFFF" d="M62.746,7.473l-5.321,6.833l1.615,0.306l1.25-1.699l3.244,0.616l0.517,2.035
		l2.486,0.472L64.104,7.73L62.746,7.473z M60.976,11.973l1.598-2.191l0.684,2.625L60.976,11.973z"/>
	<polygon clip-path="url(#SVGID_2_)" fill="#FFFFFF" points="78.545,12.779 76.505,17.109 74.002,10.638 72.704,10.026 
		69.419,16.995 70.858,17.674 72.899,13.344 75.401,19.815 76.701,20.427 79.985,13.456 	"/>
	<path clip-path="url(#SVGID_2_)" fill="#FFFFFF" d="M89.896,22.753c-0.341-1.382-1.283-2.36-2.304-3.403l-2.128-2.171l-5.503,5.392
		l1.979,2.022c1.159,1.183,1.874,1.798,2.876,2.168c2.01,0.751,3.483-0.347,4.068-0.918C89.277,25.459,90.28,24.313,89.896,22.753
		 M87.126,24.063c-2.22,2.172-3.353,0.8-4.202-0.067l-0.51-0.521l3.902-3.824l0.658,0.671
		C87.859,21.226,88.919,22.307,87.126,24.063"/>
	<path clip-path="url(#SVGID_2_)" fill="#FFFFFF" d="M95.67,30.861c-0.701-1.965-2.057-2.949-3.314-2.5
		c-1.179,0.421-1.424,1.921-1.564,2.803l-0.124,0.93c-0.173,1.087-0.306,1.48-0.697,1.621c-0.417,0.148-0.902-0.231-1.188-1.03
		c-0.307-0.86-0.321-1.589-0.302-2.344l-1.247-0.095c-0.061,1.034,0.069,1.943,0.42,2.926c0.787,2.198,2.282,2.924,3.46,2.503
		c1.178-0.42,1.419-1.753,1.604-2.872l0.134-0.976c0.13-0.836,0.221-1.353,0.589-1.485c0.405-0.144,0.839,0.268,1.089,0.969
		c0.224,0.627,0.308,1.372,0.333,1.987l1.246,0.026C96.093,32.484,95.95,31.648,95.67,30.861"/>
	<path clip-path="url(#SVGID_2_)" fill="#BE955B" d="M52.042,58.282c-6.37,0-12.61-1.333-17.573-3.754
		c-5.079-2.478-8.595-5.987-9.903-9.883l-0.064-0.19l0.008-0.202c0.036-0.743,0.334-2.623,2.357-4.057
		c1.804-1.277,4.55-1.925,8.164-1.925c4.031,0,9.142,0.815,15.194,2.42l0.021,0.007c1.137,0.327,11.345,3.197,19.644,3.197
		c3.516,0,6.148-0.524,7.828-1.56c0.172-0.106,0.334-0.218,0.49-0.335l2.206-1.682l-0.489,2.732
		C78.372,51.734,66.385,58.282,52.042,58.282"/>
	<path clip-path="url(#SVGID_2_)" fill="#513529" d="M25.591,44.301c2.511,7.481,13.611,12.9,26.451,12.9
		c13.825,0,25.383-6.313,26.819-14.342c-0.182,0.14-0.375,0.271-0.576,0.396c-1.853,1.142-4.678,1.722-8.396,1.722
		c-8.438,0-18.789-2.91-19.942-3.242c-5.957-1.579-10.979-2.384-14.917-2.384c-3.386,0-5.923,0.581-7.54,1.727
		C25.883,42.218,25.62,43.654,25.591,44.301"/>
	<path clip-path="url(#SVGID_2_)" fill="#BE955B" d="M27.868,44.061c0,0,1-5.359,15.373-1.673c0,0,9.198,2.293,10.277,2.192
		c1.081-0.103-1.079,0.101-1.079,0.101s-8.32,1.049-10.264,1.252l0.971-1.52l-7.227,2.025l1.178-1.722c0,0-6.584,0.774-4.105,5.732
		C32.992,50.45,27.868,46.348,27.868,44.061"/>
	<path clip-path="url(#SVGID_2_)" fill="#BE955B" d="M69.722,41.347c-2.418,0-5.271-0.26-8.487-0.769
		c-5.62-0.891-10.512-2.265-11.052-2.418c-6.123-1.625-11.307-2.453-15.39-2.453c-3.716,0-6.56,0.683-8.46,2.029
		c-0.271,0.191-0.502,0.361-0.705,0.521L23.5,39.929l0.39-2.676c0.682-4.675,4.361-8.864,10.357-11.8l0.62-0.302l0.535,0.433
		c0.482,0.389,1.515,1.044,3.012,1.044c0.323-0.001,0.651-0.032,0.981-0.094l0.006-0.002c0.707-0.413,5.331-2.972,14.344-4.749
		l0.321-0.063l0.305,0.126c0.928,0.388,5.986,2.619,14.371,8.518c0.187,0.104,1.847,0.998,3.784,0.998
		c1.024,0,1.952-0.252,2.756-0.75l0.785-0.485l0.602,0.698c1.418,1.644,2.378,3.409,2.859,5.249l0.049,0.193l-0.021,0.198
		c-0.106,0.952-0.6,2.315-2.352,3.397C75.605,40.847,73.088,41.347,69.722,41.347"/>
	<path clip-path="url(#SVGID_2_)" fill="#513529" d="M34.792,34.627c4.177,0,9.456,0.84,15.688,2.494
		c0.545,0.155,5.363,1.508,10.923,2.39c3.16,0.5,5.959,0.753,8.317,0.753c3.162,0,5.489-0.446,6.917-1.324
		c1.108-0.685,1.729-1.558,1.845-2.595c-0.438-1.68-1.323-3.297-2.633-4.816c-0.978,0.605-2.094,0.911-3.323,0.911
		c-2.338,0-4.264-1.107-4.346-1.155l-0.039-0.024c-8.336-5.868-13.376-8.081-14.188-8.419c-9.554,1.884-14.03,4.633-14.073,4.661
		l-0.179,0.07c-0.43,0.088-0.863,0.133-1.287,0.133c-1.858,0-3.144-0.84-3.692-1.284c-5.659,2.77-9.139,6.707-9.764,10.984
		c0.219-0.171,0.467-0.353,0.75-0.553C27.792,35.377,30.85,34.627,34.792,34.627"/>
	<path clip-path="url(#SVGID_2_)" fill="#BE955B" d="M41.579,28.512c0,0,3.347-1.921,8.966-2.937l3.458,1.469l-2.485,2.481
		l5.402-0.607c0,0,4.213,2.228,5.294,3.038c0,0-5.727,2.025-12.155,0C50.059,31.956,43.516,29.058,41.579,28.512"/>
	<path clip-path="url(#SVGID_2_)" fill="#BE955B" d="M34.389,28.372c0,0-3.492,1.858-5.359,5.319c0,0,8.211-1.279,15.054,0
		c0,0-2.217-2.126-4.449-2.679c-1.141-0.284-4.106,1.414-4.106,1.414l2.054-2.531C37.583,29.895,35.758,29.123,34.389,28.372"/>
	<path clip-path="url(#SVGID_2_)" fill="#FFFFFF" d="M103.152,68.845c-0.508,0.509-1.123,0.765-1.843,0.765
		c-0.721,0-1.332-0.256-1.837-0.765c-0.504-0.509-0.756-1.122-0.756-1.846c0-0.716,0.253-1.327,0.763-1.834
		c0.505-0.506,1.115-0.758,1.83-0.758c0.72,0,1.335,0.252,1.843,0.758c0.507,0.505,0.76,1.116,0.76,1.834
		C103.912,67.72,103.659,68.334,103.152,68.845 M99.731,65.419c-0.437,0.437-0.653,0.965-0.653,1.585
		c0,0.622,0.216,1.153,0.649,1.593c0.433,0.438,0.962,0.659,1.582,0.659c0.621,0,1.149-0.222,1.583-0.659
		c0.435-0.439,0.652-0.971,0.652-1.593c0-0.62-0.218-1.148-0.652-1.585c-0.437-0.438-0.965-0.658-1.583-0.658
		C100.693,64.761,100.168,64.981,99.731,65.419 M101.261,65.565c0.354,0,0.614,0.034,0.778,0.104
		c0.296,0.122,0.443,0.363,0.443,0.723c0,0.255-0.093,0.443-0.278,0.563c-0.1,0.064-0.237,0.111-0.414,0.14
		c0.226,0.035,0.387,0.128,0.492,0.279c0.103,0.15,0.154,0.299,0.154,0.441v0.209c0,0.067,0.001,0.138,0.007,0.213
		c0.005,0.075,0.013,0.125,0.024,0.148l0.019,0.035h-0.471c-0.004-0.01-0.006-0.019-0.008-0.028
		c-0.003-0.009-0.006-0.021-0.008-0.031l-0.011-0.092v-0.226c0-0.33-0.09-0.549-0.27-0.653c-0.105-0.063-0.292-0.092-0.559-0.092
		h-0.397v1.122h-0.503v-2.854H101.261z M101.803,66.015c-0.126-0.071-0.329-0.106-0.608-0.106h-0.431v1.034h0.455
		c0.214,0,0.372-0.021,0.48-0.063c0.196-0.078,0.294-0.227,0.294-0.447C101.993,66.224,101.931,66.085,101.803,66.015"/>
</g>
</svg>
